<mxfile host="app.diagrams.net" agent="Mozilla/5.0 (Windows NT 10.0; Win64; x64) AppleWebKit/537.36 (KHTML, like Gecko) Chrome/129.0.0.0 Safari/537.36" version="24.7.16">
  <diagram name="Página-1" id="OAdbk_ETyMLO9n_MLoZe">
    <mxGraphModel dx="1114" dy="508" grid="1" gridSize="10" guides="1" tooltips="1" connect="1" arrows="1" fold="1" page="1" pageScale="1" pageWidth="827" pageHeight="1169" math="0" shadow="0">
      <root>
        <mxCell id="0" />
        <mxCell id="1" parent="0" />
        <mxCell id="R6Cu_xliwM_Ngi1ejjEe-1" value="diagnostico" style="rounded=0;whiteSpace=wrap;html=1;" vertex="1" parent="1">
          <mxGeometry x="749" y="740" width="120" height="60" as="geometry" />
        </mxCell>
        <mxCell id="R6Cu_xliwM_Ngi1ejjEe-2" value="Desarrollar una solución web para que un médico autenticado pueda prescribir tanto medicamentos como&#xa;otras prestaciones.&#xa;Una prescripción electrónica tiene que constar con la siguiente información:&#xa;Nombre, Apellido, documento, profesión, especialidad, domicilio y matrícula del profesional.&#xa;Nombre, Apellido, documento, fecha de nacimiento, sexo, obra social y plan del paciente.&#xa;Diagnóstico, Fecha de la prescripción y vigencia (opcional)&#xa;Medicamentos y/o Prestaciones.&#xa;Respecto de los medicamentos deben indicarse por su nombre genérico, concentración, forma farmacéutica y&#xa;presentación (cantidad de unidades). Opcionalmente el médico podrá indicar el nombre comercial.&#xa;Ej. Fluoxetina 20mg capsulas x14 unidades&#xa;La receta deberá tener la información respecto a como se administrará el medicamento:&#xa; (dosis por intervalo de tiempo), por ejemplo: una capsula al día, una capsula cada 8 hs, 2 pastillas&#xa;después de cada comida.&#xa; Duración: Por cuanto tiempo se administrará la medicación. Ej 7 días, Hasta que no haya dolor, si es&#xa;necesario, etc.&#xa;Es importante mencionar que los medicamentos deberán ser obtenidos en base al diccionario nacional de&#xa;medicamentos que pronto pondrá a disposición el ministerio de salud. Por el momento se seleccionarán desde&#xa;la base local. A tal fin la aplicación deberá proveer una función para el registro de estos.&#xa;Registro de Medicamentos: Debe considerar la posibilidad de registrar, modificar, activar y desactivar los&#xa;medicamentos. Cada medicamento puede pertenecer a una categoría (Aparato digestivo, Nutriología,&#xa;Cardiovascular, etc) como así también una familia (analgésicos, antivirales, antihistamínicos, antieméticos,&#xa;etc).&#xa;Cada medicamento tendrá registrado las posibles concentraciones, formas farmacéuticas y presentaciones&#xa;cuestión de facilitar la prescripción y evitar errores del prescriptor.&#xa;Respecto de las prestaciones debe indicarse el nombre de la práctica/procedimiento/examen, lado (opcional),&#xa;indicación y justificación.&#xa;Ej. Resonancia Magnética de Cerebro.&#xa;Respecto de los profesionales si bien la aplicación dispondrá de una gestión propia de los profesionales estos&#xa;deberán estar incluidos en el registro de profesionales de la salud (REFEPS) por lo cual es importante que la&#xa;aplicación permita integrarse al registro. Por tal motivo es de suma importancia registrar junto con los datos&#xa;de los profesionales el ID del registro REFEPS.&#xa;El registro de los profesionales será realizado por un administrador y tendrá una caducidad." style="text;whiteSpace=wrap;html=1;" vertex="1" parent="1">
          <mxGeometry x="24" y="10" width="616" height="470" as="geometry" />
        </mxCell>
        <mxCell id="R6Cu_xliwM_Ngi1ejjEe-3" value="profesional" style="rounded=0;whiteSpace=wrap;html=1;" vertex="1" parent="1">
          <mxGeometry x="199" y="640" width="120" height="60" as="geometry" />
        </mxCell>
        <mxCell id="R6Cu_xliwM_Ngi1ejjEe-4" value="paciente" style="rounded=0;whiteSpace=wrap;html=1;" vertex="1" parent="1">
          <mxGeometry x="749" y="645" width="120" height="60" as="geometry" />
        </mxCell>
        <mxCell id="R6Cu_xliwM_Ngi1ejjEe-5" value="medicamento" style="rounded=0;whiteSpace=wrap;html=1;" vertex="1" parent="1">
          <mxGeometry x="249" y="860" width="120" height="60" as="geometry" />
        </mxCell>
        <mxCell id="R6Cu_xliwM_Ngi1ejjEe-6" value="especialidad" style="ellipse;whiteSpace=wrap;html=1;" vertex="1" parent="1">
          <mxGeometry x="99" y="540" width="90" height="60" as="geometry" />
        </mxCell>
        <mxCell id="R6Cu_xliwM_Ngi1ejjEe-7" value="&lt;u&gt;matricula&lt;/u&gt;" style="ellipse;whiteSpace=wrap;html=1;" vertex="1" parent="1">
          <mxGeometry x="249" y="530" width="100" height="70" as="geometry" />
        </mxCell>
        <mxCell id="R6Cu_xliwM_Ngi1ejjEe-8" value="nombre_profesional" style="ellipse;whiteSpace=wrap;html=1;" vertex="1" parent="1">
          <mxGeometry x="29" y="630" width="110" height="70" as="geometry" />
        </mxCell>
        <mxCell id="R6Cu_xliwM_Ngi1ejjEe-9" value="" style="endArrow=none;html=1;rounded=0;entryX=0;entryY=0.5;entryDx=0;entryDy=0;exitX=1;exitY=0.5;exitDx=0;exitDy=0;" edge="1" parent="1" source="R6Cu_xliwM_Ngi1ejjEe-8" target="R6Cu_xliwM_Ngi1ejjEe-3">
          <mxGeometry width="50" height="50" relative="1" as="geometry">
            <mxPoint x="119" y="680" as="sourcePoint" />
            <mxPoint x="169" y="630" as="targetPoint" />
          </mxGeometry>
        </mxCell>
        <mxCell id="R6Cu_xliwM_Ngi1ejjEe-10" value="" style="endArrow=none;html=1;rounded=0;entryX=1;entryY=1;entryDx=0;entryDy=0;exitX=0.25;exitY=0;exitDx=0;exitDy=0;" edge="1" parent="1" source="R6Cu_xliwM_Ngi1ejjEe-3" target="R6Cu_xliwM_Ngi1ejjEe-6">
          <mxGeometry width="50" height="50" relative="1" as="geometry">
            <mxPoint x="179" y="640" as="sourcePoint" />
            <mxPoint x="229" y="590" as="targetPoint" />
          </mxGeometry>
        </mxCell>
        <mxCell id="R6Cu_xliwM_Ngi1ejjEe-11" value="" style="endArrow=none;html=1;rounded=0;entryX=0.5;entryY=1;entryDx=0;entryDy=0;exitX=0.75;exitY=0;exitDx=0;exitDy=0;" edge="1" parent="1" source="R6Cu_xliwM_Ngi1ejjEe-3" target="R6Cu_xliwM_Ngi1ejjEe-7">
          <mxGeometry width="50" height="50" relative="1" as="geometry">
            <mxPoint x="259" y="650" as="sourcePoint" />
            <mxPoint x="309" y="600" as="targetPoint" />
          </mxGeometry>
        </mxCell>
        <mxCell id="R6Cu_xliwM_Ngi1ejjEe-12" value="&lt;u&gt;dni&lt;/u&gt;" style="ellipse;whiteSpace=wrap;html=1;" vertex="1" parent="1">
          <mxGeometry x="660" y="540" width="110" height="70" as="geometry" />
        </mxCell>
        <mxCell id="R6Cu_xliwM_Ngi1ejjEe-13" value="nombre_paciente" style="ellipse;whiteSpace=wrap;html=1;" vertex="1" parent="1">
          <mxGeometry x="790" y="500" width="110" height="70" as="geometry" />
        </mxCell>
        <mxCell id="R6Cu_xliwM_Ngi1ejjEe-14" value="obra_social" style="ellipse;whiteSpace=wrap;html=1;" vertex="1" parent="1">
          <mxGeometry x="890" y="560" width="110" height="70" as="geometry" />
        </mxCell>
        <mxCell id="R6Cu_xliwM_Ngi1ejjEe-15" value="plan" style="ellipse;whiteSpace=wrap;html=1;" vertex="1" parent="1">
          <mxGeometry x="940" y="655" width="100" height="70" as="geometry" />
        </mxCell>
        <mxCell id="R6Cu_xliwM_Ngi1ejjEe-16" value="" style="endArrow=none;html=1;rounded=0;entryX=0;entryY=0.25;entryDx=0;entryDy=0;" edge="1" parent="1" source="R6Cu_xliwM_Ngi1ejjEe-12" target="R6Cu_xliwM_Ngi1ejjEe-4">
          <mxGeometry width="50" height="50" relative="1" as="geometry">
            <mxPoint x="539" y="690" as="sourcePoint" />
            <mxPoint x="589" y="640" as="targetPoint" />
          </mxGeometry>
        </mxCell>
        <mxCell id="R6Cu_xliwM_Ngi1ejjEe-17" value="" style="endArrow=none;html=1;rounded=0;entryX=0.545;entryY=1;entryDx=0;entryDy=0;entryPerimeter=0;" edge="1" parent="1" source="R6Cu_xliwM_Ngi1ejjEe-4" target="R6Cu_xliwM_Ngi1ejjEe-13">
          <mxGeometry width="50" height="50" relative="1" as="geometry">
            <mxPoint x="629" y="630" as="sourcePoint" />
            <mxPoint x="599" y="600" as="targetPoint" />
          </mxGeometry>
        </mxCell>
        <mxCell id="R6Cu_xliwM_Ngi1ejjEe-18" value="" style="endArrow=none;html=1;rounded=0;exitX=1;exitY=0.5;exitDx=0;exitDy=0;entryX=0;entryY=0.714;entryDx=0;entryDy=0;entryPerimeter=0;" edge="1" parent="1" source="R6Cu_xliwM_Ngi1ejjEe-4" target="R6Cu_xliwM_Ngi1ejjEe-15">
          <mxGeometry width="50" height="50" relative="1" as="geometry">
            <mxPoint x="719" y="695" as="sourcePoint" />
            <mxPoint x="769" y="645" as="targetPoint" />
          </mxGeometry>
        </mxCell>
        <mxCell id="R6Cu_xliwM_Ngi1ejjEe-19" value="" style="endArrow=none;html=1;rounded=0;entryX=0.5;entryY=1;entryDx=0;entryDy=0;" edge="1" parent="1" source="R6Cu_xliwM_Ngi1ejjEe-4" target="R6Cu_xliwM_Ngi1ejjEe-14">
          <mxGeometry width="50" height="50" relative="1" as="geometry">
            <mxPoint x="709" y="640" as="sourcePoint" />
            <mxPoint x="759" y="590" as="targetPoint" />
          </mxGeometry>
        </mxCell>
        <mxCell id="R6Cu_xliwM_Ngi1ejjEe-20" value="&lt;u&gt;nombre_generico&lt;/u&gt;" style="ellipse;whiteSpace=wrap;html=1;" vertex="1" parent="1">
          <mxGeometry x="110" y="960" width="100" height="70" as="geometry" />
        </mxCell>
        <mxCell id="R6Cu_xliwM_Ngi1ejjEe-21" value="presentacion" style="ellipse;whiteSpace=wrap;html=1;" vertex="1" parent="1">
          <mxGeometry x="380" y="970" width="110" height="70" as="geometry" />
        </mxCell>
        <mxCell id="R6Cu_xliwM_Ngi1ejjEe-22" value="" style="endArrow=none;html=1;rounded=0;exitX=0.112;exitY=0.162;exitDx=0;exitDy=0;entryX=0.658;entryY=0.989;entryDx=0;entryDy=0;entryPerimeter=0;exitPerimeter=0;" edge="1" parent="1" source="R6Cu_xliwM_Ngi1ejjEe-21" target="R6Cu_xliwM_Ngi1ejjEe-5">
          <mxGeometry width="50" height="50" relative="1" as="geometry">
            <mxPoint x="179" y="990" as="sourcePoint" />
            <mxPoint x="500" y="940" as="targetPoint" />
          </mxGeometry>
        </mxCell>
        <mxCell id="R6Cu_xliwM_Ngi1ejjEe-23" value="" style="endArrow=none;html=1;rounded=0;exitX=0.91;exitY=0.257;exitDx=0;exitDy=0;exitPerimeter=0;entryX=0.425;entryY=1;entryDx=0;entryDy=0;entryPerimeter=0;" edge="1" parent="1" source="R6Cu_xliwM_Ngi1ejjEe-20" target="R6Cu_xliwM_Ngi1ejjEe-5">
          <mxGeometry width="50" height="50" relative="1" as="geometry">
            <mxPoint x="119" y="950" as="sourcePoint" />
            <mxPoint x="159" y="900" as="targetPoint" />
          </mxGeometry>
        </mxCell>
        <mxCell id="R6Cu_xliwM_Ngi1ejjEe-24" value="dosis" style="ellipse;whiteSpace=wrap;html=1;" vertex="1" parent="1">
          <mxGeometry x="400" y="535" width="120" height="70" as="geometry" />
        </mxCell>
        <mxCell id="R6Cu_xliwM_Ngi1ejjEe-25" value="duracion" style="ellipse;whiteSpace=wrap;html=1;" vertex="1" parent="1">
          <mxGeometry x="530" y="535" width="110" height="70" as="geometry" />
        </mxCell>
        <mxCell id="R6Cu_xliwM_Ngi1ejjEe-26" value="" style="endArrow=none;html=1;rounded=0;exitX=0.848;exitY=0.334;exitDx=0;exitDy=0;exitPerimeter=0;entryX=0.586;entryY=0.984;entryDx=0;entryDy=0;entryPerimeter=0;" edge="1" parent="1" source="R6Cu_xliwM_Ngi1ejjEe-28" target="R6Cu_xliwM_Ngi1ejjEe-25">
          <mxGeometry width="50" height="50" relative="1" as="geometry">
            <mxPoint x="618" y="668.02" as="sourcePoint" />
            <mxPoint x="590" y="610" as="targetPoint" />
          </mxGeometry>
        </mxCell>
        <mxCell id="R6Cu_xliwM_Ngi1ejjEe-27" value="" style="endArrow=none;html=1;rounded=0;entryX=0;entryY=0;entryDx=0;entryDy=0;exitX=0.5;exitY=1;exitDx=0;exitDy=0;" edge="1" parent="1" source="R6Cu_xliwM_Ngi1ejjEe-24" target="R6Cu_xliwM_Ngi1ejjEe-28">
          <mxGeometry width="50" height="50" relative="1" as="geometry">
            <mxPoint x="470" y="610" as="sourcePoint" />
            <mxPoint x="619" y="910" as="targetPoint" />
          </mxGeometry>
        </mxCell>
        <mxCell id="zpOh2JFRQXcmT8-b-XCq-2" value="Text" style="edgeLabel;html=1;align=center;verticalAlign=middle;resizable=0;points=[];" vertex="1" connectable="0" parent="R6Cu_xliwM_Ngi1ejjEe-27">
          <mxGeometry x="0.3014" y="4" relative="1" as="geometry">
            <mxPoint as="offset" />
          </mxGeometry>
        </mxCell>
        <mxCell id="R6Cu_xliwM_Ngi1ejjEe-28" value="prescripcion" style="rhombus;whiteSpace=wrap;html=1;" vertex="1" parent="1">
          <mxGeometry x="460" y="620" width="140" height="110" as="geometry" />
        </mxCell>
        <mxCell id="R6Cu_xliwM_Ngi1ejjEe-29" value="(1, N)" style="text;html=1;align=center;verticalAlign=middle;resizable=0;points=[];autosize=1;strokeColor=none;fillColor=none;" vertex="1" parent="1">
          <mxGeometry x="360" y="651" width="50" height="30" as="geometry" />
        </mxCell>
        <mxCell id="R6Cu_xliwM_Ngi1ejjEe-30" value="(1,1)" style="text;html=1;align=center;verticalAlign=middle;whiteSpace=wrap;rounded=0;" vertex="1" parent="1">
          <mxGeometry x="640" y="652" width="60" height="30" as="geometry" />
        </mxCell>
        <mxCell id="R6Cu_xliwM_Ngi1ejjEe-31" value="" style="endArrow=none;html=1;rounded=0;entryX=0.5;entryY=1;entryDx=0;entryDy=0;exitX=0.5;exitY=0;exitDx=0;exitDy=0;" edge="1" parent="1" source="R6Cu_xliwM_Ngi1ejjEe-5" target="R6Cu_xliwM_Ngi1ejjEe-28">
          <mxGeometry width="50" height="50" relative="1" as="geometry">
            <mxPoint x="530" y="870" as="sourcePoint" />
            <mxPoint x="524" y="730" as="targetPoint" />
          </mxGeometry>
        </mxCell>
        <mxCell id="R6Cu_xliwM_Ngi1ejjEe-32" value="(N,N)" style="text;html=1;align=center;verticalAlign=middle;whiteSpace=wrap;rounded=0;" vertex="1" parent="1">
          <mxGeometry x="414" y="790" width="60" height="30" as="geometry" />
        </mxCell>
        <mxCell id="R6Cu_xliwM_Ngi1ejjEe-33" value="" style="endArrow=none;html=1;rounded=0;entryX=0;entryY=0.5;entryDx=0;entryDy=0;exitX=1.017;exitY=0.578;exitDx=0;exitDy=0;exitPerimeter=0;" edge="1" parent="1" source="R6Cu_xliwM_Ngi1ejjEe-3" target="R6Cu_xliwM_Ngi1ejjEe-28">
          <mxGeometry width="50" height="50" relative="1" as="geometry">
            <mxPoint x="380" y="735" as="sourcePoint" />
            <mxPoint x="430" y="685" as="targetPoint" />
          </mxGeometry>
        </mxCell>
        <mxCell id="R6Cu_xliwM_Ngi1ejjEe-34" value="" style="endArrow=none;html=1;rounded=0;exitX=1;exitY=0.5;exitDx=0;exitDy=0;entryX=0;entryY=0.5;entryDx=0;entryDy=0;" edge="1" parent="1" source="R6Cu_xliwM_Ngi1ejjEe-28" target="R6Cu_xliwM_Ngi1ejjEe-4">
          <mxGeometry width="50" height="50" relative="1" as="geometry">
            <mxPoint x="550" y="780" as="sourcePoint" />
            <mxPoint x="700" y="700" as="targetPoint" />
          </mxGeometry>
        </mxCell>
        <mxCell id="R6Cu_xliwM_Ngi1ejjEe-35" value="prestacion" style="rounded=0;whiteSpace=wrap;html=1;" vertex="1" parent="1">
          <mxGeometry x="590" y="860" width="120" height="60" as="geometry" />
        </mxCell>
        <mxCell id="R6Cu_xliwM_Ngi1ejjEe-36" value="" style="endArrow=none;html=1;rounded=0;entryX=0.5;entryY=1;entryDx=0;entryDy=0;exitX=0.5;exitY=0;exitDx=0;exitDy=0;" edge="1" parent="1" source="R6Cu_xliwM_Ngi1ejjEe-35" target="R6Cu_xliwM_Ngi1ejjEe-28">
          <mxGeometry width="50" height="50" relative="1" as="geometry">
            <mxPoint x="590" y="960" as="sourcePoint" />
            <mxPoint x="640" y="910" as="targetPoint" />
          </mxGeometry>
        </mxCell>
        <mxCell id="R6Cu_xliwM_Ngi1ejjEe-37" value="&lt;u&gt;nombre&lt;/u&gt;" style="ellipse;whiteSpace=wrap;html=1;" vertex="1" parent="1">
          <mxGeometry x="490" y="967.5" width="110" height="75" as="geometry" />
        </mxCell>
        <mxCell id="R6Cu_xliwM_Ngi1ejjEe-38" value="indicación" style="ellipse;whiteSpace=wrap;html=1;" vertex="1" parent="1">
          <mxGeometry x="660" y="965" width="110" height="75" as="geometry" />
        </mxCell>
        <mxCell id="R6Cu_xliwM_Ngi1ejjEe-39" value="" style="endArrow=none;html=1;rounded=0;entryX=0.417;entryY=1;entryDx=0;entryDy=0;entryPerimeter=0;exitX=0.714;exitY=0.091;exitDx=0;exitDy=0;exitPerimeter=0;" edge="1" parent="1" source="R6Cu_xliwM_Ngi1ejjEe-37" target="R6Cu_xliwM_Ngi1ejjEe-35">
          <mxGeometry width="50" height="50" relative="1" as="geometry">
            <mxPoint x="660" y="980" as="sourcePoint" />
            <mxPoint x="710" y="930" as="targetPoint" />
          </mxGeometry>
        </mxCell>
        <mxCell id="R6Cu_xliwM_Ngi1ejjEe-40" value="" style="endArrow=none;html=1;rounded=0;exitX=0.589;exitY=1.007;exitDx=0;exitDy=0;exitPerimeter=0;" edge="1" parent="1" source="R6Cu_xliwM_Ngi1ejjEe-35" target="R6Cu_xliwM_Ngi1ejjEe-38">
          <mxGeometry width="50" height="50" relative="1" as="geometry">
            <mxPoint x="814" y="980" as="sourcePoint" />
            <mxPoint x="864" y="930" as="targetPoint" />
          </mxGeometry>
        </mxCell>
        <mxCell id="R6Cu_xliwM_Ngi1ejjEe-41" value="(N,N)" style="text;html=1;align=center;verticalAlign=middle;whiteSpace=wrap;rounded=0;" vertex="1" parent="1">
          <mxGeometry x="600" y="790" width="60" height="30" as="geometry" />
        </mxCell>
        <mxCell id="R6Cu_xliwM_Ngi1ejjEe-42" value="id_refeps" style="ellipse;whiteSpace=wrap;html=1;" vertex="1" parent="1">
          <mxGeometry x="139" y="750" width="111" height="70" as="geometry" />
        </mxCell>
        <mxCell id="R6Cu_xliwM_Ngi1ejjEe-43" value="" style="endArrow=none;html=1;rounded=0;" edge="1" parent="1">
          <mxGeometry width="50" height="50" relative="1" as="geometry">
            <mxPoint x="200" y="750" as="sourcePoint" />
            <mxPoint x="250" y="700" as="targetPoint" />
          </mxGeometry>
        </mxCell>
        <mxCell id="R6Cu_xliwM_Ngi1ejjEe-44" value="vigencia" style="ellipse;whiteSpace=wrap;html=1;" vertex="1" parent="1">
          <mxGeometry x="860" y="850" width="100" height="70" as="geometry" />
        </mxCell>
        <mxCell id="R6Cu_xliwM_Ngi1ejjEe-45" value="fecha_prescripcion" style="ellipse;whiteSpace=wrap;html=1;" vertex="1" parent="1">
          <mxGeometry x="730" y="850" width="110" height="70" as="geometry" />
        </mxCell>
        <mxCell id="R6Cu_xliwM_Ngi1ejjEe-46" value="diagnostico" style="rounded=0;whiteSpace=wrap;html=1;" vertex="1" parent="1">
          <mxGeometry x="754" y="745" width="110" height="50" as="geometry" />
        </mxCell>
        <mxCell id="R6Cu_xliwM_Ngi1ejjEe-47" value="" style="endArrow=none;html=1;rounded=0;exitX=0.356;exitY=0.078;exitDx=0;exitDy=0;exitPerimeter=0;" edge="1" parent="1" source="R6Cu_xliwM_Ngi1ejjEe-44">
          <mxGeometry width="50" height="50" relative="1" as="geometry">
            <mxPoint x="890" y="850" as="sourcePoint" />
            <mxPoint x="820" y="800" as="targetPoint" />
          </mxGeometry>
        </mxCell>
        <mxCell id="R6Cu_xliwM_Ngi1ejjEe-48" value="" style="endArrow=none;html=1;rounded=0;" edge="1" parent="1">
          <mxGeometry width="50" height="50" relative="1" as="geometry">
            <mxPoint x="764" y="850" as="sourcePoint" />
            <mxPoint x="814" y="800" as="targetPoint" />
          </mxGeometry>
        </mxCell>
        <mxCell id="R6Cu_xliwM_Ngi1ejjEe-49" value="" style="endArrow=none;html=1;rounded=0;entryX=0.5;entryY=1;entryDx=0;entryDy=0;" edge="1" parent="1" target="R6Cu_xliwM_Ngi1ejjEe-4">
          <mxGeometry width="50" height="50" relative="1" as="geometry">
            <mxPoint x="810" y="740" as="sourcePoint" />
            <mxPoint x="860" y="690" as="targetPoint" />
          </mxGeometry>
        </mxCell>
        <mxCell id="zpOh2JFRQXcmT8-b-XCq-1" value="Receta" style="rounded=0;whiteSpace=wrap;html=1;" vertex="1" parent="1">
          <mxGeometry x="1654" y="620" width="120" height="60" as="geometry" />
        </mxCell>
        <mxCell id="zpOh2JFRQXcmT8-b-XCq-3" value="dosis" style="ellipse;whiteSpace=wrap;html=1;" vertex="1" parent="1">
          <mxGeometry x="1580" y="500" width="120" height="70" as="geometry" />
        </mxCell>
        <mxCell id="zpOh2JFRQXcmT8-b-XCq-4" value="duracion" style="ellipse;whiteSpace=wrap;html=1;" vertex="1" parent="1">
          <mxGeometry x="1730" y="490" width="110" height="70" as="geometry" />
        </mxCell>
        <mxCell id="zpOh2JFRQXcmT8-b-XCq-8" value="" style="endArrow=none;html=1;rounded=0;entryX=0.5;entryY=1;entryDx=0;entryDy=0;" edge="1" parent="1" source="zpOh2JFRQXcmT8-b-XCq-1" target="zpOh2JFRQXcmT8-b-XCq-4">
          <mxGeometry width="50" height="50" relative="1" as="geometry">
            <mxPoint x="1400" y="600" as="sourcePoint" />
            <mxPoint x="1440" y="570" as="targetPoint" />
          </mxGeometry>
        </mxCell>
        <mxCell id="zpOh2JFRQXcmT8-b-XCq-9" value="" style="endArrow=none;html=1;rounded=0;entryX=0.25;entryY=0;entryDx=0;entryDy=0;exitX=0.5;exitY=1;exitDx=0;exitDy=0;" edge="1" parent="1" source="zpOh2JFRQXcmT8-b-XCq-3" target="zpOh2JFRQXcmT8-b-XCq-1">
          <mxGeometry relative="1" as="geometry">
            <mxPoint x="1280" y="570" as="sourcePoint" />
            <mxPoint x="1440" y="570" as="targetPoint" />
          </mxGeometry>
        </mxCell>
        <mxCell id="zpOh2JFRQXcmT8-b-XCq-11" value="profesional" style="rounded=0;whiteSpace=wrap;html=1;" vertex="1" parent="1">
          <mxGeometry x="1330" y="621" width="120" height="60" as="geometry" />
        </mxCell>
        <mxCell id="zpOh2JFRQXcmT8-b-XCq-12" value="especialidad" style="ellipse;whiteSpace=wrap;html=1;" vertex="1" parent="1">
          <mxGeometry x="1200" y="510" width="90" height="60" as="geometry" />
        </mxCell>
        <mxCell id="zpOh2JFRQXcmT8-b-XCq-13" value="&lt;u&gt;matricula&lt;/u&gt;" style="ellipse;whiteSpace=wrap;html=1;" vertex="1" parent="1">
          <mxGeometry x="1350" y="500" width="100" height="70" as="geometry" />
        </mxCell>
        <mxCell id="zpOh2JFRQXcmT8-b-XCq-14" value="nombre_profesional" style="ellipse;whiteSpace=wrap;html=1;" vertex="1" parent="1">
          <mxGeometry x="1130" y="600" width="110" height="70" as="geometry" />
        </mxCell>
        <mxCell id="zpOh2JFRQXcmT8-b-XCq-15" value="" style="endArrow=none;html=1;rounded=0;entryX=0;entryY=0.5;entryDx=0;entryDy=0;exitX=1;exitY=0.5;exitDx=0;exitDy=0;" edge="1" parent="1" source="zpOh2JFRQXcmT8-b-XCq-14" target="zpOh2JFRQXcmT8-b-XCq-11">
          <mxGeometry width="50" height="50" relative="1" as="geometry">
            <mxPoint x="1220" y="650" as="sourcePoint" />
            <mxPoint x="1270" y="600" as="targetPoint" />
          </mxGeometry>
        </mxCell>
        <mxCell id="zpOh2JFRQXcmT8-b-XCq-16" value="" style="endArrow=none;html=1;rounded=0;entryX=1;entryY=1;entryDx=0;entryDy=0;exitX=0.25;exitY=0;exitDx=0;exitDy=0;" edge="1" parent="1" source="zpOh2JFRQXcmT8-b-XCq-11" target="zpOh2JFRQXcmT8-b-XCq-12">
          <mxGeometry width="50" height="50" relative="1" as="geometry">
            <mxPoint x="1280" y="610" as="sourcePoint" />
            <mxPoint x="1330" y="560" as="targetPoint" />
          </mxGeometry>
        </mxCell>
        <mxCell id="zpOh2JFRQXcmT8-b-XCq-17" value="" style="endArrow=none;html=1;rounded=0;entryX=0.5;entryY=1;entryDx=0;entryDy=0;exitX=0.75;exitY=0;exitDx=0;exitDy=0;" edge="1" parent="1" source="zpOh2JFRQXcmT8-b-XCq-11" target="zpOh2JFRQXcmT8-b-XCq-13">
          <mxGeometry width="50" height="50" relative="1" as="geometry">
            <mxPoint x="1360" y="620" as="sourcePoint" />
            <mxPoint x="1410" y="570" as="targetPoint" />
          </mxGeometry>
        </mxCell>
        <mxCell id="zpOh2JFRQXcmT8-b-XCq-18" value="id_refeps" style="ellipse;whiteSpace=wrap;html=1;" vertex="1" parent="1">
          <mxGeometry x="1240" y="720" width="111" height="70" as="geometry" />
        </mxCell>
        <mxCell id="zpOh2JFRQXcmT8-b-XCq-19" value="" style="endArrow=none;html=1;rounded=0;entryX=0.25;entryY=1;entryDx=0;entryDy=0;" edge="1" parent="1" target="zpOh2JFRQXcmT8-b-XCq-11">
          <mxGeometry width="50" height="50" relative="1" as="geometry">
            <mxPoint x="1301" y="720" as="sourcePoint" />
            <mxPoint x="1351" y="670" as="targetPoint" />
          </mxGeometry>
        </mxCell>
        <mxCell id="zpOh2JFRQXcmT8-b-XCq-20" value="Prescribe" style="shape=rhombus;perimeter=rhombusPerimeter;whiteSpace=wrap;html=1;align=center;" vertex="1" parent="1">
          <mxGeometry x="1490" y="620" width="120" height="60" as="geometry" />
        </mxCell>
        <mxCell id="zpOh2JFRQXcmT8-b-XCq-21" value="" style="line;strokeWidth=1;rotatable=0;dashed=0;labelPosition=right;align=left;verticalAlign=middle;spacingTop=0;spacingLeft=6;points=[];portConstraint=eastwest;" vertex="1" parent="1">
          <mxGeometry x="1450" y="646" width="40" height="10" as="geometry" />
        </mxCell>
        <mxCell id="zpOh2JFRQXcmT8-b-XCq-23" value="" style="endArrow=none;html=1;rounded=0;entryX=0;entryY=0.5;entryDx=0;entryDy=0;exitX=1;exitY=0.5;exitDx=0;exitDy=0;" edge="1" parent="1" source="zpOh2JFRQXcmT8-b-XCq-20" target="zpOh2JFRQXcmT8-b-XCq-1">
          <mxGeometry relative="1" as="geometry">
            <mxPoint x="1460" y="670" as="sourcePoint" />
            <mxPoint x="1620" y="670" as="targetPoint" />
          </mxGeometry>
        </mxCell>
        <mxCell id="zpOh2JFRQXcmT8-b-XCq-32" value="1" style="text;html=1;align=center;verticalAlign=middle;resizable=0;points=[];autosize=1;strokeColor=none;fillColor=none;" vertex="1" parent="1">
          <mxGeometry x="1440" y="630" width="30" height="30" as="geometry" />
        </mxCell>
        <mxCell id="zpOh2JFRQXcmT8-b-XCq-33" value="N" style="text;html=1;align=center;verticalAlign=middle;resizable=0;points=[];autosize=1;strokeColor=none;fillColor=none;" vertex="1" parent="1">
          <mxGeometry x="1625" y="628" width="30" height="30" as="geometry" />
        </mxCell>
        <mxCell id="zpOh2JFRQXcmT8-b-XCq-34" value="Recibe" style="shape=rhombus;perimeter=rhombusPerimeter;whiteSpace=wrap;html=1;align=center;" vertex="1" parent="1">
          <mxGeometry x="1830" y="621" width="120" height="60" as="geometry" />
        </mxCell>
        <mxCell id="zpOh2JFRQXcmT8-b-XCq-35" value="" style="endArrow=none;html=1;rounded=0;exitX=1;exitY=0.5;exitDx=0;exitDy=0;entryX=0;entryY=0.5;entryDx=0;entryDy=0;" edge="1" parent="1" source="zpOh2JFRQXcmT8-b-XCq-1" target="zpOh2JFRQXcmT8-b-XCq-34">
          <mxGeometry relative="1" as="geometry">
            <mxPoint x="1870" y="670" as="sourcePoint" />
            <mxPoint x="2030" y="670" as="targetPoint" />
          </mxGeometry>
        </mxCell>
        <mxCell id="zpOh2JFRQXcmT8-b-XCq-36" value="" style="endArrow=none;html=1;rounded=0;exitX=1;exitY=0.5;exitDx=0;exitDy=0;" edge="1" parent="1" source="zpOh2JFRQXcmT8-b-XCq-34">
          <mxGeometry relative="1" as="geometry">
            <mxPoint x="1970" y="645" as="sourcePoint" />
            <mxPoint x="2010" y="650" as="targetPoint" />
          </mxGeometry>
        </mxCell>
        <mxCell id="zpOh2JFRQXcmT8-b-XCq-39" value="paciente" style="rounded=0;whiteSpace=wrap;html=1;" vertex="1" parent="1">
          <mxGeometry x="2008" y="615" width="120" height="60" as="geometry" />
        </mxCell>
        <mxCell id="zpOh2JFRQXcmT8-b-XCq-40" value="&lt;u&gt;dni&lt;/u&gt;" style="ellipse;whiteSpace=wrap;html=1;" vertex="1" parent="1">
          <mxGeometry x="1890" y="510" width="110" height="70" as="geometry" />
        </mxCell>
        <mxCell id="zpOh2JFRQXcmT8-b-XCq-41" value="nombre_paciente" style="ellipse;whiteSpace=wrap;html=1;" vertex="1" parent="1">
          <mxGeometry x="1980" y="500" width="110" height="70" as="geometry" />
        </mxCell>
        <mxCell id="zpOh2JFRQXcmT8-b-XCq-42" value="obra_social" style="ellipse;whiteSpace=wrap;html=1;" vertex="1" parent="1">
          <mxGeometry x="2110" y="515" width="110" height="70" as="geometry" />
        </mxCell>
        <mxCell id="zpOh2JFRQXcmT8-b-XCq-43" value="plan" style="ellipse;whiteSpace=wrap;html=1;" vertex="1" parent="1">
          <mxGeometry x="2200" y="650" width="100" height="70" as="geometry" />
        </mxCell>
        <mxCell id="zpOh2JFRQXcmT8-b-XCq-44" value="" style="endArrow=none;html=1;rounded=0;entryX=0;entryY=0.25;entryDx=0;entryDy=0;" edge="1" parent="1" source="zpOh2JFRQXcmT8-b-XCq-40" target="zpOh2JFRQXcmT8-b-XCq-39">
          <mxGeometry width="50" height="50" relative="1" as="geometry">
            <mxPoint x="1489" y="690" as="sourcePoint" />
            <mxPoint x="1539" y="640" as="targetPoint" />
          </mxGeometry>
        </mxCell>
        <mxCell id="zpOh2JFRQXcmT8-b-XCq-45" value="" style="endArrow=none;html=1;rounded=0;entryX=0.545;entryY=1;entryDx=0;entryDy=0;entryPerimeter=0;" edge="1" parent="1" source="zpOh2JFRQXcmT8-b-XCq-39" target="zpOh2JFRQXcmT8-b-XCq-41">
          <mxGeometry width="50" height="50" relative="1" as="geometry">
            <mxPoint x="1579" y="630" as="sourcePoint" />
            <mxPoint x="1549" y="600" as="targetPoint" />
          </mxGeometry>
        </mxCell>
        <mxCell id="zpOh2JFRQXcmT8-b-XCq-46" value="" style="endArrow=none;html=1;rounded=0;exitX=1;exitY=0.5;exitDx=0;exitDy=0;entryX=0;entryY=0.714;entryDx=0;entryDy=0;entryPerimeter=0;" edge="1" parent="1" source="zpOh2JFRQXcmT8-b-XCq-39" target="zpOh2JFRQXcmT8-b-XCq-43">
          <mxGeometry width="50" height="50" relative="1" as="geometry">
            <mxPoint x="1669" y="695" as="sourcePoint" />
            <mxPoint x="1719" y="645" as="targetPoint" />
          </mxGeometry>
        </mxCell>
        <mxCell id="zpOh2JFRQXcmT8-b-XCq-47" value="" style="endArrow=none;html=1;rounded=0;entryX=0.5;entryY=1;entryDx=0;entryDy=0;" edge="1" parent="1" source="zpOh2JFRQXcmT8-b-XCq-39" target="zpOh2JFRQXcmT8-b-XCq-42">
          <mxGeometry width="50" height="50" relative="1" as="geometry">
            <mxPoint x="1659" y="640" as="sourcePoint" />
            <mxPoint x="1709" y="590" as="targetPoint" />
          </mxGeometry>
        </mxCell>
      </root>
    </mxGraphModel>
  </diagram>
</mxfile>
